<svg xmlns="http://www.w3.org/2000/svg" width="33.5" height="27.91" viewBox="0 0 33.5 27.91">
  <path id="Icon_ionic-ios-share-alt" data-name="Icon ionic-ios-share-alt" d="M37.705,18.473,25.4,6.959a.629.629,0,0,0-.488-.209c-.384.017-.872.288-.872.7v5.774a.373.373,0,0,1-.314.358C11.486,15.455,6.331,24.613,4.508,34.12c-.07.375.436.724.672.427,4.466-5.626,9.9-9.3,18.491-9.368a.432.432,0,0,1,.366.419v5.669a.749.749,0,0,0,1.265.462L37.7,20.017A.963.963,0,0,0,38,19.284,1.169,1.169,0,0,0,37.705,18.473Z" transform="translate(-4.502 -6.749)" fill="#fff"/>
</svg>
