<svg xmlns="http://www.w3.org/2000/svg" width="44.993" height="19.54" viewBox="0 0 44.993 19.54">
  <path id="Icon_awesome-soundcloud" data-name="Icon awesome-soundcloud" d="M7.833,18.021l.408,4.57-.408,4.8a.332.332,0,0,1-.309.309.3.3,0,0,1-.3-.309l-.394-4.8.394-4.57a.3.3,0,0,1,.3-.3.337.337,0,0,1,.309.3Zm1.5-3.206a.362.362,0,0,0-.352.352l-.352,7.425.352,4.8a.362.362,0,0,0,.352.352.344.344,0,0,0,.33-.352l.408-4.8-.408-7.425A.344.344,0,0,0,9.337,14.815ZM11.13,13.12a.389.389,0,0,0-.394.373l-.309,9.141.309,4.767a.389.389,0,0,0,.394.373A.371.371,0,0,0,11.5,27.4l.373-4.767L11.5,13.493A.371.371,0,0,0,11.13,13.12ZM.506,19.913c-.1,0-.155.077-.176.176L0,22.591l.33,2.461c.021.1.077.176.176.176s.155-.077.176-.176l.394-2.461-.394-2.5c-.021-.1-.077-.176-.176-.176Zm1.659-1.54a.174.174,0,0,0-.176.176l-.45,4.043.45,3.945a.18.18,0,0,0,.176.2.209.209,0,0,0,.2-.176l.506-3.966-.506-4.043a.209.209,0,0,0-.2-.176Zm1.779-.8a.244.244,0,0,0-.232.232L3.3,22.591l.408,4.627a.254.254,0,0,0,.232.218.219.219,0,0,0,.218-.218l.485-4.627L4.163,17.8a.222.222,0,0,0-.218-.232Zm1.779-.155a.248.248,0,0,0-.253.253l-.408,4.922.408,4.767a.248.248,0,0,0,.253.253A.28.28,0,0,0,6,27.359l.45-4.767L6,17.67A.28.28,0,0,0,5.723,17.416ZM22.7,9.619a.549.549,0,0,0-.3-.1.647.647,0,0,0-.394.134.721.721,0,0,0-.232.471v.056l-.232,12.424.12,2.285.12,2.229a.643.643,0,0,0,.626.6.609.609,0,0,0,.6-.6l.274-4.514-.274-12.48a.677.677,0,0,0-.316-.506ZM20.82,10.695a.618.618,0,0,0-.309-.1.6.6,0,0,0-.309.1.555.555,0,0,0-.253.471l-.021.12-.2,11.306s0,.021.218,4.612v.021a.53.53,0,0,0,.12.33.6.6,0,0,0,.45.218.57.57,0,0,0,.394-.176.484.484,0,0,0,.176-.394l.021-.471.218-4.12-.232-11.447a.631.631,0,0,0-.274-.471Zm-7.833,1.582a.427.427,0,0,0-.408.429l-.309,9.886.309,4.725a.418.418,0,0,0,.837,0l.352-4.725-.352-9.886a.44.44,0,0,0-.429-.429Zm26.487,4.416a5.647,5.647,0,0,0-2.152.429A9.771,9.771,0,0,0,27.6,8.234a9.588,9.588,0,0,0-3.537.661c-.429.155-.548.309-.548.647V27.1a.662.662,0,0,0,.6.647H39.466a5.527,5.527,0,0,0,.007-11.053Zm-20.862-4.24a.558.558,0,0,0-.548.548l-.232,9.612.232,4.612a.554.554,0,0,0,.548.527.522.522,0,0,0,.527-.527l.274-4.612L19.139,13A.54.54,0,0,0,18.612,12.452ZM14.843,11.9a.477.477,0,0,0-.45.471l-.274,10.216.274,4.7a.461.461,0,0,0,.921,0l.309-4.7-.309-10.216a.5.5,0,0,0-.471-.471Zm1.877.239a.482.482,0,0,0-.485.485l-.274,9.963.274,4.669a.5.5,0,0,0,.485.485.486.486,0,0,0,.485-.485l.3-4.669-.3-9.963a.477.477,0,0,0-.485-.485Z" transform="translate(0 -8.234)" fill="#f80"/>
</svg>
