<svg xmlns="http://www.w3.org/2000/svg" width="25.329" height="16.886" viewBox="0 0 25.329 16.886">
  <path id="Icon_awesome-eye" data-name="Icon awesome-eye" d="M25.176,12.3A14.1,14.1,0,0,0,12.665,4.5,14.106,14.106,0,0,0,.153,12.3a1.423,1.423,0,0,0,0,1.284,14.1,14.1,0,0,0,12.512,7.8,14.106,14.106,0,0,0,12.512-7.8A1.423,1.423,0,0,0,25.176,12.3ZM12.665,19.275A6.332,6.332,0,1,1,19,12.943,6.332,6.332,0,0,1,12.665,19.275Zm0-10.554a4.191,4.191,0,0,0-1.113.167A2.1,2.1,0,0,1,8.61,11.83a4.212,4.212,0,1,0,4.055-3.109Z" transform="translate(0 -4.5)"/>
</svg>
