<svg xmlns="http://www.w3.org/2000/svg" width="9.393" height="20.219" viewBox="0 0 9.393 20.219">
  <path id="Path_45" data-name="Path 45" d="M153.054,224.07v9.775a.255.255,0,0,0,.255.255h3.63a.255.255,0,0,0,.255-.255v-9.935h2.632a.254.254,0,0,0,.253-.233l.253-2.994a.255.255,0,0,0-.254-.276h-2.885v-2.123a.9.9,0,0,1,.9-.9h2.029a.255.255,0,0,0,.255-.255v-2.993a.255.255,0,0,0-.255-.255H156.7a3.642,3.642,0,0,0-3.642,3.642v2.885h-1.815a.255.255,0,0,0-.255.255v2.994a.254.254,0,0,0,.255.255h1.815Z" transform="translate(-150.984 -213.881)" fill-rule="evenodd"/>
</svg>
