<svg xmlns="http://www.w3.org/2000/svg" width="13.5" height="18" viewBox="0 0 13.5 18">
  <path id="Icon_awesome-file-alt" data-name="Icon awesome-file-alt" d="M7.875,4.781V0H.844A.842.842,0,0,0,0,.844V17.156A.842.842,0,0,0,.844,18H12.656a.842.842,0,0,0,.844-.844V5.625H8.719A.846.846,0,0,1,7.875,4.781Zm2.25,8.3A.423.423,0,0,1,9.7,13.5H3.8a.423.423,0,0,1-.422-.422V12.8a.423.423,0,0,1,.422-.422H9.7a.423.423,0,0,1,.422.422Zm0-2.25a.423.423,0,0,1-.422.422H3.8a.423.423,0,0,1-.422-.422v-.281a.423.423,0,0,1,.422-.422H9.7a.423.423,0,0,1,.422.422Zm0-2.531v.281A.423.423,0,0,1,9.7,9H3.8a.423.423,0,0,1-.422-.422V8.3A.423.423,0,0,1,3.8,7.875H9.7A.423.423,0,0,1,10.125,8.3ZM13.5,4.286V4.5H9V0h.214a.843.843,0,0,1,.6.246l3.442,3.445A.841.841,0,0,1,13.5,4.286Z" fill="#2d2d2d"/>
</svg>
