<svg xmlns="http://www.w3.org/2000/svg" width="19.221" height="20.737" viewBox="0 0 19.221 20.737">
  <g id="logout" transform="translate(0 -211.5)">
    <g id="Group_2270" data-name="Group 2270" transform="translate(0 211.5)">
      <path id="Path_1450" data-name="Path 1450" d="M26.478,19.549H21.07a2.666,2.666,0,0,1-2.663-2.663V3.851A2.666,2.666,0,0,1,21.07,1.188h5.5a.594.594,0,1,0,0-1.188h-5.5a3.855,3.855,0,0,0-3.851,3.851V16.886a3.855,3.855,0,0,0,3.851,3.851h5.409a.594.594,0,0,0,0-1.188Z" transform="translate(-17.219)" fill="#2d2d2d"/>
      <path id="Path_1451" data-name="Path 1451" d="M135.02,140.276l-3.776-3.776a.594.594,0,0,0-.841.841l2.764,2.764H121.113a.594.594,0,1,0,0,1.188h12.054l-2.764,2.764a.6.6,0,0,0,.418,1.017.58.58,0,0,0,.418-.176l3.776-3.776A.594.594,0,0,0,135.02,140.276Z" transform="translate(-115.973 -130.326)" fill="#2d2d2d"/>
    </g>
  </g>
</svg>
