<svg id="friendship" xmlns="http://www.w3.org/2000/svg" width="24.23" height="21.881" viewBox="0 0 24.23 21.881">
  <g id="Group_2263" data-name="Group 2263" transform="translate(2.647 4.489)">
    <g id="Group_2262" data-name="Group 2262" transform="translate(0 0)">
      <path id="Path_1435" data-name="Path 1435" d="M56.737,126.948a.457.457,0,0,0-.669,0,.519.519,0,0,0,0,.707.456.456,0,0,0,.669,0,.519.519,0,0,0,0-.707Z" transform="translate(-55.929 -126.802)" fill="#fff"/>
    </g>
  </g>
  <g id="Group_2265" data-name="Group 2265" transform="translate(17.975 15.123)">
    <g id="Group_2264" data-name="Group 2264" transform="translate(0 0)">
      <path id="Path_1436" data-name="Path 1436" d="M380.637,339.9a.457.457,0,0,0-.669,0,.518.518,0,0,0,0,.706.455.455,0,0,0,.669,0,.518.518,0,0,0,0-.706Z" transform="translate(-379.829 -339.755)" fill="#fff"/>
    </g>
  </g>
  <g id="Group_2267" data-name="Group 2267" transform="translate(0 0)">
    <g id="Group_2266" data-name="Group 2266" transform="translate(0)">
      <path id="Path_1437" data-name="Path 1437" d="M23.76,37.4a1.55,1.55,0,0,0-2.276,0L18.54,40.511a2.474,2.474,0,0,0,.055-.518v-.639a2.232,2.232,0,1,0-4.458,0v.639a2.427,2.427,0,0,0,.408,1.353H9.686a2.427,2.427,0,0,0,.408-1.353v-.639A2.3,2.3,0,0,0,7.864,37a2.3,2.3,0,0,0-2.229,2.352v.639a2.474,2.474,0,0,0,.055.518L2.746,37.4a1.552,1.552,0,0,0-2.276,0,1.767,1.767,0,0,0,0,2.4l1.2,1.269a.456.456,0,0,0,.669,0,.519.519,0,0,0,0-.706L1.14,39.1a.728.728,0,0,1,0-.989.639.639,0,0,1,.937,0l3.34,3.524a2.223,2.223,0,0,0,1.624.71H17.189a2.223,2.223,0,0,0,1.624-.71l3.34-3.524a.639.639,0,0,1,.937,0,.728.728,0,0,1,0,.989L18.114,44.35a.514.514,0,0,0-.139.353v3.03H14.757V44.242a.487.487,0,0,0-.473-.5H9.947a.487.487,0,0,0-.473.5v3.491H6.255V44.7a.514.514,0,0,0-.139-.353L4.5,42.649a.456.456,0,0,0-.669,0,.519.519,0,0,0,0,.706L5.309,44.91V58.288a.487.487,0,0,0,.473.5H9.947a.487.487,0,0,0,.473-.5V44.742h3.391V58.288a.487.487,0,0,0,.473.5h4.165a.487.487,0,0,0,.473-.5V54.56a.474.474,0,1,0-.947,0v3.229H16.84V51.246a.474.474,0,1,0-.947,0v6.543H14.757V48.732h3.218V50.7a.474.474,0,1,0,.947,0V44.91l4.838-5.1A1.767,1.767,0,0,0,23.76,37.4ZM9.147,39.993a1.284,1.284,0,1,1-2.565,0v-.639a1.284,1.284,0,1,1,2.565,0Zm8.5,0a1.284,1.284,0,1,1-2.565,0v-.639a1.284,1.284,0,1,1,2.565,0Zm-8.175,17.8H8.338V51.246a.474.474,0,1,0-.947,0v6.543H6.255V48.732H9.474v9.057Z" transform="translate(0 -36.907)" fill="#fff"/>
    </g>
  </g>
</svg>
