<svg id="medal" xmlns="http://www.w3.org/2000/svg" width="43.105" height="56.597" viewBox="0 0 43.105 56.597">
  <path id="Path_1456" data-name="Path 1456" d="M16.218.622A1.661,1.661,0,0,0,14.923,0H1.658a1.659,1.659,0,0,0-1.3,2.694L13.627,19.276,22.851,8.912Zm0,0" transform="translate(0 0)" fill="#f03800"/>
  <path id="Path_1457" data-name="Path 1457" d="M152.417,2.686,139.981,18.239h-8.755L123.3,17.211,131.226,7.3,136.566.63A1.635,1.635,0,0,1,137.859,0h13.265a1.659,1.659,0,0,1,1.492.929,1.68,1.68,0,0,1-.2,1.757Zm0,0" transform="translate(-109.671 0)" fill="#ff641a"/>
  <path id="Path_1458" data-name="Path 1458" d="M216.19,2.686,203.755,18.239H195V7.3L200.339.63A1.635,1.635,0,0,1,201.632,0H214.9a1.659,1.659,0,0,1,1.492.929,1.681,1.681,0,0,1-.2,1.757Zm0,0" transform="translate(-173.444 0)" fill="#f03800"/>
  <path id="Path_1459" data-name="Path 1459" d="M154.974,150a4.974,4.974,0,1,0,4.974,4.974A4.967,4.967,0,0,0,154.974,150Zm0,0" transform="translate(-133.419 -133.419)" fill="#ffda2d"/>
  <path id="Path_1460" data-name="Path 1460" d="M195,159.949V150a4.974,4.974,0,1,1,0,9.949Zm0,0" transform="translate(-173.444 -133.419)" fill="#fdbf00"/>
  <path id="Path_1461" data-name="Path 1461" d="M61.581,210a16.692,16.692,0,1,0,16.581,16.692A16.682,16.682,0,0,0,61.581,210Zm0,0" transform="translate(-40.026 -186.786)" fill="#fff261"/>
  <path id="Path_1462" data-name="Path 1462" d="M211.581,226.692A16.682,16.682,0,0,1,195,243.383V210A16.682,16.682,0,0,1,211.581,226.692Zm0,0" transform="translate(-173.444 -186.786)" fill="#ffda2d"/>
  <path id="Path_1463" data-name="Path 1463" d="M101.53,253.375A13.265,13.265,0,1,1,88.265,240,13.356,13.356,0,0,1,101.53,253.375Zm0,0" transform="translate(-66.709 -213.47)" fill="#ffda2d"/>
  <path id="Path_1464" data-name="Path 1464" d="M208.265,253.375A13.356,13.356,0,0,1,195,266.751V240A13.356,13.356,0,0,1,208.265,253.375Zm0,0" transform="translate(-173.444 -213.47)" fill="#fdbf00"/>
  <path id="Path_1465" data-name="Path 1465" d="M124.932,282.864a1.648,1.648,0,0,0-1.359-1.127l-4.842-.73-2.156-4.377a1.758,1.758,0,0,0-2.985,0l-2.156,4.377-4.842.73a1.649,1.649,0,0,0-1.359,1.127,1.613,1.613,0,0,0,.431,1.691l3.515,3.415-.829,4.919a1.632,1.632,0,0,0,.663,1.625,1.562,1.562,0,0,0,1.725.133l4.344-2.289,4.344,2.289a1.562,1.562,0,0,0,1.725-.133,1.632,1.632,0,0,0,.663-1.625l-.829-4.919,3.515-3.415a1.613,1.613,0,0,0,.431-1.691Zm0,0" transform="translate(-93.528 -245.313)" fill="#fff261"/>
  <path id="Path_1466" data-name="Path 1466" d="M204.418,284.555l-3.515,3.416.829,4.919a1.63,1.63,0,0,1-.663,1.625,1.561,1.561,0,0,1-1.724.133L195,292.36V275.8a1.642,1.642,0,0,1,1.492.829l2.156,4.377,4.842.73a1.649,1.649,0,0,1,1.359,1.127,1.613,1.613,0,0,1-.431,1.691Zm0,0" transform="translate(-173.444 -245.313)" fill="#ffda2d"/>
  <path id="Path_1467" data-name="Path 1467" d="M89.349,156.135a1.6,1.6,0,0,1-2.321,0l-2.852-2.819h-18.5l-2.852,2.819a1.641,1.641,0,0,1-2.321-2.321l3.316-3.316a1.556,1.556,0,0,1,1.161-.5h19.9a1.556,1.556,0,0,1,1.161.5l3.316,3.316a1.6,1.6,0,0,1,0,2.321Zm0,0" transform="translate(-53.368 -133.419)" fill="#fff261"/>
  <path id="Path_1468" data-name="Path 1468" d="M209.426,156.135a1.6,1.6,0,0,1-2.321,0l-2.852-2.819H195V150h9.949a1.556,1.556,0,0,1,1.161.5l3.316,3.316A1.6,1.6,0,0,1,209.426,156.135Zm0,0" transform="translate(-173.444 -133.419)" fill="#ffda2d"/>
</svg>
