<svg xmlns="http://www.w3.org/2000/svg" width="19" height="23" viewBox="0 0 19 23">
  <g id="Icon_ionic-ios-notifications-outline" data-name="Icon ionic-ios-notifications-outline" transform="translate(-7.474 -4.397)">
    <path id="Path_1734" data-name="Path 1734" d="M20.37,28.336a.911.911,0,0,0-.893.717,1.762,1.762,0,0,1-.352.766,1.329,1.329,0,0,1-1.132.415,1.351,1.351,0,0,1-1.132-.415,1.762,1.762,0,0,1-.352-.766.911.911,0,0,0-.893-.717h0c-.591,0-.777.548-.651,1.118a2.714,2.714,0,0,0,3.027,2.367,2.688,2.688,0,0,0,3-2.367c.127-.57-.044-1.118-.628-1.118Z" transform="translate(-1.04 -4.424)" fill="#fff"/>
    <path id="Path_1735" data-name="Path 1735" d="M25.85,20.694c-.975-1.142-2.648-1.812-2.648-6.926,0-5.249-2.249-7.072-4.681-7.579-.228-.051-.013-.4-.013-.619V5.408c0-.748-.684-1.011-1.52-1.011h0c-.836,0-1.558.263-1.558,1.011v.163c0,.208.2.568-.032.619-2.439.512-4.681,2.33-4.681,7.579,0,5.114-1.634,5.778-2.61,6.926-.627.737-1.039,1.416,0,1.416H25.85C26.869,22.11,26.47,21.425,25.85,20.694Zm-1.286.694H9.387c-.241,0-.158-.615,0-.778a6.772,6.772,0,0,0,1.33-1.879,11.479,11.479,0,0,0,.906-4.962,7.886,7.886,0,0,1,1.324-4.883A4.107,4.107,0,0,1,15.4,7.332a2.3,2.3,0,0,0,1.178-.591.544.544,0,0,1,.754-.011,2.38,2.38,0,0,0,1.191.6,4.107,4.107,0,0,1,2.451,1.553A7.886,7.886,0,0,1,22.3,13.768,11.479,11.479,0,0,0,23.2,18.73a6.859,6.859,0,0,0,1.362,1.907C24.7,20.789,24.785,21.388,24.564,21.388Z" fill="#fff"/>
  </g>
</svg>
