<svg xmlns="http://www.w3.org/2000/svg" width="22.568" height="26.2" viewBox="0 0 22.568 26.2">
  <path id="Icon_ionic-ios-paper" data-name="Icon ionic-ios-paper" d="M7.279,5.3V24.649a.79.79,0,0,1-.719.841h0a.79.79,0,0,1-.719-.841V7.221H5.019A1.8,1.8,0,0,0,3.375,9.144V26.452a1.8,1.8,0,0,0,1.644,1.923H23.155a1.739,1.739,0,0,0,1.587-1.857V5.3A1.8,1.8,0,0,0,23.1,3.375L8.82,3.5A1.611,1.611,0,0,0,7.279,5.3Zm3.39,1.923h4.315a.79.79,0,0,1,.719.841h0a.79.79,0,0,1-.719.841H10.669a.79.79,0,0,1-.719-.841h0A.79.79,0,0,1,10.669,7.221Zm0,9.615h7.6a.79.79,0,0,1,.719.841h0a.79.79,0,0,1-.719.841h-7.6a.79.79,0,0,1-.719-.841h0A.79.79,0,0,1,10.669,16.837Zm10.067,6.49H10.669a.79.79,0,0,1-.719-.841h0a.79.79,0,0,1,.719-.841H20.736a.79.79,0,0,1,.719.841h0A.79.79,0,0,1,20.736,23.327Zm0-9.615H10.669a.79.79,0,0,1-.719-.841h0a.79.79,0,0,1,.719-.841H20.736a.79.79,0,0,1,.719.841h0A.79.79,0,0,1,20.736,13.712Z" transform="translate(-2.775 -2.775)" fill="none" stroke="#ff414d" stroke-linecap="round" stroke-linejoin="round" stroke-width="1.2"/>
</svg>
