<svg xmlns="http://www.w3.org/2000/svg" width="23.081" height="21.881" viewBox="0 0 23.081 21.881">
  <g id="speech-bubble" transform="translate(0 0)">
    <path id="Path_1438" data-name="Path 1438" d="M246.451,100a.476.476,0,1,0,.451.476A.464.464,0,0,0,246.451,100Zm0,0" transform="translate(-234.91 -95.243)" fill="#fff"/>
    <path id="Path_1439" data-name="Path 1439" d="M80.451,260.951a.476.476,0,1,0-.451-.476A.464.464,0,0,0,80.451,260.951Zm0,0" transform="translate(-76.394 -247.633)" fill="#fff"/>
    <path id="Path_1440" data-name="Path 1440" d="M15.147,0A7.465,7.465,0,0,0,7.5,6.671C3.635,6.876,0,9.816,0,13.794a6.844,6.844,0,0,0,1.758,4.549,3,3,0,0,1-.724,2.725.5.5,0,0,0-.1.518.451.451,0,0,0,.416.294A4.839,4.839,0,0,0,4.8,20.411a9.782,9.782,0,0,0,3.136.518,7.465,7.465,0,0,0,7.647-6.67,9.663,9.663,0,0,0,2.7-.507,4.839,4.839,0,0,0,3.445,1.469.451.451,0,0,0,.416-.294.5.5,0,0,0-.1-.518,3,3,0,0,1-.724-2.725,6.844,6.844,0,0,0,1.758-4.549C23.081,3,19.166,0,15.147,0ZM7.934,19.977a8.687,8.687,0,0,1-3.088-.561.435.435,0,0,0-.5.121A4.031,4.031,0,0,1,2.323,20.8,4.038,4.038,0,0,0,2.6,17.973a.481.481,0,0,0-.11-.2A5.878,5.878,0,0,1,.9,13.794c0-3.352,3.22-6.184,7.032-6.184,3.6,0,6.762,2.641,6.762,6.184,0,3.41-3.033,6.184-6.762,6.184Zm12.659-8.865a.484.484,0,0,0-.11.2,4.038,4.038,0,0,0,.275,2.831,4.03,4.03,0,0,1-2.023-1.267.435.435,0,0,0-.5-.121,8.476,8.476,0,0,1-2.656.549,6.922,6.922,0,0,0-2.436-4.745h5.88a.476.476,0,0,0,0-.951H11.759A8.066,8.066,0,0,0,8.4,6.673,6.554,6.554,0,0,1,15.147.951c3.812,0,7.032,2.832,7.032,6.184a5.878,5.878,0,0,1-1.586,3.978Zm0,0" transform="translate(0 0)" fill="#fff"/>
    <path id="Path_1441" data-name="Path 1441" d="M126.131,260h-5.68a.476.476,0,0,0,0,.951h5.68a.476.476,0,0,0,0-.951Zm0,0" transform="translate(-114.59 -247.633)" fill="#fff"/>
    <path id="Path_1442" data-name="Path 1442" d="M87.934,320H80.451a.476.476,0,0,0,0,.951h7.483a.476.476,0,0,0,0-.951Zm0,0" transform="translate(-76.394 -304.779)" fill="#fff"/>
    <path id="Path_1443" data-name="Path 1443" d="M292.131,100h-5.68a.476.476,0,0,0,0,.951h5.68a.476.476,0,0,0,0-.951Zm0,0" transform="translate(-273.107 -95.243)" fill="#fff"/>
  </g>
</svg>
