<svg xmlns="http://www.w3.org/2000/svg" width="12.263" height="9.81" viewBox="0 0 12.263 9.81">
  <path id="Icon_awesome-crown" data-name="Icon awesome-crown" d="M10.117,8.584H2.146a.307.307,0,0,0-.307.307V9.5a.307.307,0,0,0,.307.307h7.971a.307.307,0,0,0,.307-.307V8.89A.307.307,0,0,0,10.117,8.584Zm1.226-6.131a.92.92,0,0,0-.92.92.9.9,0,0,0,.084.379L9.12,4.583a.612.612,0,0,1-.847-.222L6.712,1.629a.92.92,0,1,0-1.161,0L3.989,4.361a.613.613,0,0,1-.847.222L1.757,3.752a.919.919,0,1,0-.837.54.939.939,0,0,0,.148-.015L2.453,7.971H9.81L11.2,4.277a.939.939,0,0,0,.148.015.92.92,0,1,0,0-1.839Z" fill="#4346e1"/>
</svg>
