<svg id="time" xmlns="http://www.w3.org/2000/svg" width="20.465" height="20.465" viewBox="0 0 20.465 20.465">
  <path id="Path_1453" data-name="Path 1453" d="M10.233,0A10.233,10.233,0,1,0,20.465,10.233,10.244,10.244,0,0,0,10.233,0Zm0,19.783a9.551,9.551,0,1,1,9.551-9.551A9.561,9.561,0,0,1,10.233,19.783Z" fill="#fff"/>
  <path id="Path_1454" data-name="Path 1454" d="M18.813,6a.342.342,0,0,0-.342.342v7.865h-5.13a.342.342,0,1,0,0,.684h5.472a.342.342,0,0,0,.342-.342V6.342A.342.342,0,0,0,18.813,6Z" transform="translate(-8.571 -3.948)" fill="#fff"/>
</svg>
