<svg xmlns="http://www.w3.org/2000/svg" width="32.927" height="21.951" viewBox="0 0 32.927 21.951">
  <path id="Icon_awesome-eye" data-name="Icon awesome-eye" d="M32.728,14.641A18.335,18.335,0,0,0,16.463,4.5,18.338,18.338,0,0,0,.2,14.642a1.849,1.849,0,0,0,0,1.669A18.335,18.335,0,0,0,16.463,26.451,18.338,18.338,0,0,0,32.728,16.31,1.849,1.849,0,0,0,32.728,14.641ZM16.463,23.707A8.232,8.232,0,1,1,24.7,15.476,8.232,8.232,0,0,1,16.463,23.707Zm0-13.719a5.448,5.448,0,0,0-1.447.217,2.735,2.735,0,0,1-3.824,3.824,5.475,5.475,0,1,0,5.271-4.041Z" transform="translate(0 -4.5)" fill="#fafafa"/>
</svg>
