<svg xmlns="http://www.w3.org/2000/svg" width="21.648" height="21.648" viewBox="0 0 21.648 21.648">
  <path id="Icon_awesome-facebook-square" data-name="Icon awesome-facebook-square" d="M19.328,2.25H2.319A2.319,2.319,0,0,0,0,4.569V21.578A2.319,2.319,0,0,0,2.319,23.9H8.951v-7.36H5.907V13.074H8.951v-2.64c0-3,1.788-4.662,4.526-4.662a18.442,18.442,0,0,1,2.683.234V8.953H14.65A1.732,1.732,0,0,0,12.7,10.825v2.249H16.02l-.532,3.464H12.7V23.9h6.632a2.319,2.319,0,0,0,2.319-2.319V4.569A2.319,2.319,0,0,0,19.328,2.25Z" transform="translate(0 -2.25)" fill="#37489e"/>
</svg>
