<svg xmlns="http://www.w3.org/2000/svg" width="13.843" height="21.429" viewBox="0 0 13.843 21.429">
  <path id="Icon_zocial-google" data-name="Icon zocial-google" d="M6.556,17.636a4.16,4.16,0,0,1,1.907-3.321,7.364,7.364,0,0,1,4.607-1.458h1.157a2.53,2.53,0,0,1-.9-1.843,2.556,2.556,0,0,1,.344-1.243c-.143.014-.35.021-.622.021A4.97,4.97,0,0,1,9.407,8.4,4.624,4.624,0,0,1,7.992,4.971,4.327,4.327,0,0,1,9.749,1.564,6.1,6.1,0,0,1,13.757.107H20.4L18.921,1.178h-2.1A2.969,2.969,0,0,1,18.4,2.636a5,5,0,0,1,.568,2.379,4.328,4.328,0,0,1-1.885,3.472,4.889,4.889,0,0,0-1.029.986,1.628,1.628,0,0,0-.236.9,1.728,1.728,0,0,0,.578,1.029,8.463,8.463,0,0,0,1.158,1.049,5.634,5.634,0,0,1,1.811,1.886,5.205,5.205,0,0,1,.5,2.422,4.218,4.218,0,0,1-1.757,3.354,7.335,7.335,0,0,1-4.757,1.425,9.98,9.98,0,0,1-4.822-1.071A3.19,3.19,0,0,1,6.556,17.636Zm2.4-.706a3.165,3.165,0,0,0,1.254,2.519,4.723,4.723,0,0,0,3.117,1.039,5.817,5.817,0,0,0,3.7-.942,3.081,3.081,0,0,0,1.146-2.507,2.368,2.368,0,0,0-.086-.686,3.48,3.48,0,0,0-.15-.439,1.605,1.605,0,0,0-.258-.406c-.114-.136-.214-.25-.3-.343a3.162,3.162,0,0,0-.418-.354c-.193-.143-.34-.25-.439-.321s-.279-.2-.536-.376-.443-.3-.557-.375a5.567,5.567,0,0,0-1.65-.257h-.086a5.506,5.506,0,0,0-3.279,1.007A2.958,2.958,0,0,0,8.957,16.93ZM10.37,4.951a5.5,5.5,0,0,0,1.3,2.914,3.159,3.159,0,0,0,2.347,1.243H14.1a2.217,2.217,0,0,0,1.929-1.114,3.837,3.837,0,0,0,.578-2.121,6.561,6.561,0,0,0-.043-.729A5.146,5.146,0,0,0,15.29,2.272,3.277,3.277,0,0,0,12.943,1.05h-.086a2.238,2.238,0,0,0-1.95,1.093,3.732,3.732,0,0,0-.579,2.1A6,6,0,0,0,10.37,4.951Z" transform="translate(-6.556 -0.107)" fill="#fff"/>
</svg>
