<svg id="plus" xmlns="http://www.w3.org/2000/svg" width="20.737" height="21.881" viewBox="0 0 20.737 21.881">
  <path id="Path_1448" data-name="Path 1448" d="M10.368,0C4.651,0,0,4.908,0,10.94s4.651,10.94,10.368,10.94,10.368-4.908,10.368-10.94S16.085,0,10.368,0Zm0,21.039A9.857,9.857,0,0,1,.8,10.94,9.857,9.857,0,0,1,10.368.842a9.857,9.857,0,0,1,9.571,10.1A9.857,9.857,0,0,1,10.368,21.039Z" fill="#fff"/>
  <path id="Path_1449" data-name="Path 1449" d="M22.868,18.049H18.282V13.421a.4.4,0,1,0-.8,0v4.629H12.9a.421.421,0,0,0,0,.842h4.586V23.94a.4.4,0,1,0,.8,0V18.891h4.586a.421.421,0,0,0,0-.842Z" transform="translate(-7.515 -7.53)" fill="#fff"/>
</svg>
