<svg id="medal" xmlns="http://www.w3.org/2000/svg" width="31.28" height="41.072" viewBox="0 0 31.28 41.072">
  <path id="Path_1456" data-name="Path 1456" d="M11.769.451A1.205,1.205,0,0,0,10.829,0H1.2a1.2,1.2,0,0,0-.94,1.955L9.889,13.988l6.693-7.52Zm0,0" transform="translate(0 0)" fill="#f03800"/>
  <path id="Path_1457" data-name="Path 1457" d="M144.43,1.949l-9.025,11.287h-6.353L123.3,12.49l5.752-7.2L132.927.457A1.186,1.186,0,0,1,133.865,0h9.626a1.2,1.2,0,0,1,1.083.674,1.22,1.22,0,0,1-.144,1.275Zm0,0" transform="translate(-113.41 0)" fill="#ff641a"/>
  <path id="Path_1458" data-name="Path 1458" d="M210.378,1.949l-9.025,11.287H195V5.294L198.874.457A1.186,1.186,0,0,1,199.813,0h9.626a1.2,1.2,0,0,1,1.083.674,1.22,1.22,0,0,1-.144,1.275Zm0,0" transform="translate(-179.357 0)" fill="#f03800"/>
  <path id="Path_1459" data-name="Path 1459" d="M153.61,150a3.61,3.61,0,1,0,3.61,3.61A3.6,3.6,0,0,0,153.61,150Zm0,0" transform="translate(-137.967 -137.967)" fill="#ffda2d"/>
  <path id="Path_1460" data-name="Path 1460" d="M195,157.22V150a3.61,3.61,0,1,1,0,7.22Zm0,0" transform="translate(-179.358 -137.967)" fill="#fdbf00"/>
  <path id="Path_1461" data-name="Path 1461" d="M57.033,210a12.113,12.113,0,1,0,12.033,12.113A12.106,12.106,0,0,0,57.033,210Zm0,0" transform="translate(-41.39 -193.154)" fill="#fff261"/>
  <path id="Path_1462" data-name="Path 1462" d="M207.033,222.113A12.106,12.106,0,0,1,195,234.226V210A12.106,12.106,0,0,1,207.033,222.113Zm0,0" transform="translate(-179.358 -193.154)" fill="#ffda2d"/>
  <path id="Path_1463" data-name="Path 1463" d="M94.252,249.706A9.626,9.626,0,1,1,84.626,240,9.692,9.692,0,0,1,94.252,249.706Zm0,0" transform="translate(-68.984 -220.748)" fill="#ffda2d"/>
  <path id="Path_1464" data-name="Path 1464" d="M204.626,249.706A9.692,9.692,0,0,1,195,259.413V240A9.692,9.692,0,0,1,204.626,249.706Zm0,0" transform="translate(-179.358 -220.748)" fill="#fdbf00"/>
  <path id="Path_1465" data-name="Path 1465" d="M119.506,280.926a1.2,1.2,0,0,0-.986-.818l-3.514-.53-1.564-3.176a1.275,1.275,0,0,0-2.166,0l-1.564,3.176-3.514.53a1.2,1.2,0,0,0-.986.818,1.171,1.171,0,0,0,.313,1.227l2.551,2.479-.6,3.57a1.185,1.185,0,0,0,.481,1.18,1.134,1.134,0,0,0,1.252.1l3.153-1.661,3.153,1.661a1.134,1.134,0,0,0,1.252-.1,1.184,1.184,0,0,0,.481-1.18l-.6-3.57,2.551-2.479a1.171,1.171,0,0,0,.313-1.227Zm0,0" transform="translate(-96.716 -253.676)" fill="#fff261"/>
  <path id="Path_1466" data-name="Path 1466" d="M201.834,282.154l-2.551,2.479.6,3.57a1.183,1.183,0,0,1-.481,1.179,1.133,1.133,0,0,1-1.251.1L195,287.817V275.8a1.192,1.192,0,0,1,1.083.6l1.564,3.176,3.514.53a1.2,1.2,0,0,1,.986.818,1.171,1.171,0,0,1-.313,1.227Zm0,0" transform="translate(-179.357 -253.676)" fill="#ffda2d"/>
  <path id="Path_1467" data-name="Path 1467" d="M81.3,154.452a1.163,1.163,0,0,1-1.685,0l-2.07-2.046H64.116l-2.07,2.046a1.191,1.191,0,0,1-1.685-1.685l2.407-2.407A1.129,1.129,0,0,1,63.61,150H78.049a1.129,1.129,0,0,1,.842.361l2.407,2.407a1.163,1.163,0,0,1,0,1.685Zm0,0" transform="translate(-55.187 -137.967)" fill="#fff261"/>
  <path id="Path_1468" data-name="Path 1468" d="M205.468,154.452a1.163,1.163,0,0,1-1.685,0l-2.07-2.046H195V150h7.22a1.129,1.129,0,0,1,.842.361l2.407,2.407A1.163,1.163,0,0,1,205.468,154.452Zm0,0" transform="translate(-179.357 -137.967)" fill="#ffda2d"/>
</svg>
