<svg xmlns="http://www.w3.org/2000/svg" width="23.288" height="14" viewBox="0 0 23.288 14">
  <g id="Icon_ionic-ios-videocam" data-name="Icon ionic-ios-videocam" transform="translate(1.5 0.5)">
    <path id="Path_1710" data-name="Path 1710" d="M28.528,10.8a.566.566,0,0,0-.36.132L24.82,13.6a.451.451,0,0,0-.155.351v3.707A.451.451,0,0,0,24.82,18l3.348,2.663a.6.6,0,0,0,.36.132h.8a.379.379,0,0,0,.333-.415V11.215a.382.382,0,0,0-.333-.415Z" transform="translate(-8.377 -8.8)" fill="none" stroke="#fff" stroke-width="1"/>
    <path id="Path_1711" data-name="Path 1711" d="M14.622,22H4.888A2.635,2.635,0,0,1,2.25,19.39V11.61A2.631,2.631,0,0,1,4.883,9h9.734a2.631,2.631,0,0,1,2.633,2.61v7.775A2.624,2.624,0,0,1,14.622,22Z" transform="translate(-3.25 -9)" fill="none" stroke="#fff" stroke-width="1"/>
  </g>
</svg>
