<svg xmlns="http://www.w3.org/2000/svg" width="20.737" height="19.221" viewBox="0 0 20.737 19.221">
  <g id="Group_2375" data-name="Group 2375" transform="translate(-124.617 -539.258)">
    <g id="Group_2373" data-name="Group 2373" transform="translate(124.617 558.479) rotate(-90)">
      <path id="Path_1450" data-name="Path 1450" d="M26.478,19.549H21.07a2.666,2.666,0,0,1-2.663-2.663V3.851A2.666,2.666,0,0,1,21.07,1.188h5.5a.594.594,0,1,0,0-1.188h-5.5a3.855,3.855,0,0,0-3.851,3.851V16.886a3.855,3.855,0,0,0,3.851,3.851h5.409a.594.594,0,0,0,0-1.188Z" transform="translate(-17.219)" fill="#fff"/>
      <path id="Path_1451" data-name="Path 1451" d="M135.02,140.276l-3.776-3.776a.594.594,0,0,0-.841.841l2.764,2.764H121.113a.594.594,0,1,0,0,1.188h12.054l-2.764,2.764a.6.6,0,0,0,.418,1.017.58.58,0,0,0,.418-.176l3.776-3.776A.594.594,0,0,0,135.02,140.276Z" transform="translate(-115.973 -130.326)" fill="#fff"/>
    </g>
  </g>
</svg>
