<svg xmlns="http://www.w3.org/2000/svg" width="15.2" height="17.58" viewBox="0 0 15.2 17.58">
  <path id="Icon_ionic-ios-paper" data-name="Icon ionic-ios-paper" d="M5.933,4.635V17.314a.517.517,0,0,1-.471.551h0a.517.517,0,0,1-.471-.551V5.895H4.452a1.178,1.178,0,0,0-1.077,1.26V18.5a1.178,1.178,0,0,0,1.077,1.26H16.335a1.139,1.139,0,0,0,1.04-1.217V4.635A1.178,1.178,0,0,0,16.3,3.375l-9.356.079A1.056,1.056,0,0,0,5.933,4.635Zm2.221,1.26h2.827a.517.517,0,0,1,.471.551h0A.517.517,0,0,1,10.981,7H8.154a.517.517,0,0,1-.471-.551h0A.517.517,0,0,1,8.154,5.895Zm0,6.3h4.981a.517.517,0,0,1,.471.551h0a.517.517,0,0,1-.471.551H8.154a.517.517,0,0,1-.471-.551h0A.517.517,0,0,1,8.154,12.2Zm6.6,4.252h-6.6a.517.517,0,0,1-.471-.551h0a.517.517,0,0,1,.471-.551h6.6a.517.517,0,0,1,.471.551h0A.517.517,0,0,1,14.75,16.448Zm0-6.3h-6.6A.517.517,0,0,1,7.683,9.6h0a.517.517,0,0,1,.471-.551h6.6a.517.517,0,0,1,.471.551h0A.517.517,0,0,1,14.75,10.148Z" transform="translate(-2.775 -2.775)" fill="none" stroke="#ff414d" stroke-linecap="round" stroke-linejoin="round" stroke-width="1.2"/>
</svg>
