<svg xmlns="http://www.w3.org/2000/svg" width="20.676" height="18.255" viewBox="0 0 20.676 18.255">
  <g id="Share" transform="translate(0.5 0.517)">
    <path id="Icon_awesome-share" data-name="Icon awesome-share" d="M19.357,8.316,12.593,2.475a.923.923,0,0,0-1.525.7V6.249C4.895,6.32,0,7.557,0,13.407a7.856,7.856,0,0,0,3.2,5.923.685.685,0,0,0,1.079-.716c-1.743-5.573.827-7.052,6.786-7.138v3.379a.923.923,0,0,0,1.525.7l6.764-5.841A.923.923,0,0,0,19.357,8.316Z" transform="translate(0 -2.25)" fill="none" stroke="#000" stroke-width="1"/>
  </g>
</svg>
